<?xml version="1.0" standalone="no"?>
<!DOCTYPE svg PUBLIC "-//W3C//DTD SVG 20010904//EN"
 "http://www.w3.org/TR/2001/REC-SVG-20010904/DTD/svg10.dtd">
<svg version="1.0" xmlns="http://www.w3.org/2000/svg"
 width="512.000000pt" height="512.000000pt" viewBox="0 0 512.000000 512.000000"
 preserveAspectRatio="xMidYMid meet">

<g transform="translate(0.000000,512.000000) scale(0.100000,-0.100000)"
fill="#000000" stroke="none">
<path d="M2649 4421 c-42 -14 -237 -141 -775 -508 -396 -270 -730 -496 -744
-504 -20 -11 -110 -15 -435 -19 l-410 -5 -58 -27 c-78 -37 -129 -78 -165 -136
-61 -96 -62 -105 -62 -663 0 -468 1 -512 19 -568 33 -107 101 -180 216 -233
49 -23 59 -23 460 -28 325 -4 415 -8 435 -19 14 -8 347 -233 740 -501 393
-268 734 -494 758 -504 108 -42 237 -27 337 39 62 41 96 83 133 163 l27 57 0
1595 0 1595 -32 67 c-81 172 -267 256 -444 199z"/>
<path d="M3945 3244 c-47 -24 -195 -174 -216 -219 -46 -98 -23 -145 154 -322
l142 -143 -142 -142 c-177 -178 -199 -225 -154 -323 21 -46 185 -209 225 -225
40 -15 113 -12 150 5 17 8 94 78 171 155 l139 140 146 -144 c80 -80 158 -149
173 -155 36 -14 108 -14 144 0 40 15 202 176 224 224 46 98 23 145 -154 323
l-142 142 142 143 c177 177 200 224 154 322 -22 48 -184 209 -224 224 -41 16
-114 13 -151 -4 -17 -8 -94 -78 -171 -155 l-139 -140 -146 144 c-80 80 -158
149 -173 155 -41 16 -117 13 -152 -5z"/>
</g>
</svg>
